<svg xmlns="http://www.w3.org/2000/svg" xmlns:xlink="http://www.w3.org/1999/xlink" width="158" height="158" viewBox="0 0 158 158">
  <defs>
    <filter id="Ellipse_206" x="0" y="0" width="158" height="158" filterUnits="userSpaceOnUse">
      <feOffset dy="12" input="SourceAlpha"/>
      <feGaussianBlur stdDeviation="14" result="blur"/>
      <feFlood flood-color="#0c77ff" flood-opacity="0.239"/>
      <feComposite operator="in" in2="blur"/>
      <feComposite in="SourceGraphic"/>
    </filter>
    <clipPath id="clip-path">
      <rect id="Rectangle_2617" data-name="Rectangle 2617" width="31.74" height="31.712" transform="translate(0 0)" fill="none"/>
    </clipPath>
  </defs>
  <g id="Group_76600" data-name="Group 76600" transform="translate(-597 -498)">
    <g id="Group_76599" data-name="Group 76599" transform="translate(-42 19)" opacity="0.8">
      <g transform="matrix(1, 0, 0, 1, 639, 479)" filter="url(#Ellipse_206)">
        <circle id="Ellipse_206-2" data-name="Ellipse 206" cx="37" cy="37" r="37" transform="translate(42 30)" fill="#0c77ff" opacity="0.05"/>
      </g>
    </g>
    <g id="Group_76598" data-name="Group 76598" transform="translate(660.13 549.144)" opacity="0.19">
      <g id="Group_76597" data-name="Group 76597" clip-path="url(#clip-path)">
        <path id="Path_9882" data-name="Path 9882" d="M.12,13.941a15.1,15.1,0,0,0,0,3.8,16.1,16.1,0,0,1,0-3.8m.54,6.42a14.647,14.647,0,0,0,.51,1.45,11.845,11.845,0,0,1-.51-1.45m0-9.04a11.772,11.772,0,0,1,.51-1.449,14.54,14.54,0,0,0-.51,1.449m2.24,9.44a12.2,12.2,0,0,0,.77,1.69,15.114,15.114,0,0,1-.77-1.69m1.11,2.27a11.269,11.269,0,0,0,1.16,1.63,15.525,15.525,0,0,1-1.16-1.63m0-14.38a15.631,15.631,0,0,1,1.16-1.63,11.325,11.325,0,0,0-1.16,1.63m1.16,16.01c.11.14.23.28.35.41l.04.04c-.02-.01-.03-.02-.03-.04-.12-.13-.24-.27-.36-.41m.81.9a.647.647,0,0,0,.08.09,1.92,1.92,0,0,0,.15.14,1.738,1.738,0,0,1,.15.13c-.12-.12-.25-.24-.38-.36m7.99,6.03a15.1,15.1,0,0,0,3.8,0,16.1,16.1,0,0,1-3.8,0m10.15-4.61c.01-.01.03-.02.04-.03.12-.09.24-.19.35-.28-.13.1-.26.2-.39.31m2.09-1.91c0,.02-.01.03-.03.04l.04-.04c.12-.13.24-.27.35-.41-.12.14-.24.28-.36.41m-.83.85a1.738,1.738,0,0,1,.15-.13,1.92,1.92,0,0,0,.15-.14.647.647,0,0,0,.08-.09c-.13.12-.26.24-.38.36m.3-19.89a1.92,1.92,0,0,0-.15-.14l-.01.01a13.868,13.868,0,0,1,2.8,3.83,13.679,13.679,0,0,0-2.64-3.7m.89,18.63a11.269,11.269,0,0,0,1.16-1.63,15.525,15.525,0,0,1-1.16,1.63m1.5-2.21a12.2,12.2,0,0,0,.77-1.69,15.114,15.114,0,0,1-.77,1.69m2.5-.64a14.647,14.647,0,0,0,.51-1.45,11.845,11.845,0,0,1-.51,1.45m.71-9.749c.12.5.22,1,.29,1.5a12.419,12.419,0,0,0-.29-1.5m.38,2.259c.05.5.07,1.01.07,1.51q0,.435-.03.87a3.866,3.866,0,0,1-.03.48c-.03.37-.07.73-.13,1.09.04-.2.06-.4.09-.6a15.775,15.775,0,0,0,.11-1.83,12.788,12.788,0,0,0-.08-1.52"/>
        <path id="Path_9883" data-name="Path 9883" d="M5.53,25.071c0,.02.01.03.03.04l-.04-.04Z"/>
        <path id="Path_9884" data-name="Path 9884" d="M26.21,25.071h.01l-.04.04c.02-.01.03-.02.03-.04"/>
        <path id="Path_9885" data-name="Path 9885" d="M31.67,17.181c-.01.16-.03.33-.04.49-.03.2-.05.4-.09.6.06-.36.1-.72.13-1.09"/>
        <path id="Path_9886" data-name="Path 9886" d="M27.28,4.821c-.11-.12-.22-.23-.34-.339a1.6,1.6,0,0,1,.15.14c.07.069.13.129.19.2"/>
        <path id="Path_9887" data-name="Path 9887" d="M31.66,14.321c.05.5.07,1.01.07,1.51q0,.435-.03.87a3.866,3.866,0,0,1-.03.48c-.03.37-.07.73-.13,1.09a.148.148,0,0,1-.01.07c-.03.18-.06.37-.09.55-.05.25-.1.49-.16.73s-.13.49-.2.74a14.647,14.647,0,0,1-.51,1.45,5.547,5.547,0,0,1-.24.56,4.538,4.538,0,0,1-.21.45c-.1.2-.19.39-.3.58-.12.22-.25.44-.38.66-.15.26-.32.52-.5.77a12.669,12.669,0,0,1-.83,1.1,13.511,13.511,0,0,1-1.02,1.13,15.141,15.141,0,0,1-1.73,1.49c-.13.11-.27.2-.41.3a14.749,14.749,0,0,1-2.4,1.38c-.277.133-.569.251-.858.372a11.2,11.2,0,0,1-1.392.478c-.22.06-.44.12-.65.17a17.231,17.231,0,0,1-1.88.34,15.009,15.009,0,0,1-3.8,0,17.231,17.231,0,0,1-1.88-.34c-.21-.05-.43-.11-.65-.17a11.2,11.2,0,0,1-1.392-.478c-.289-.121-.581-.239-.858-.372a14.749,14.749,0,0,1-2.4-1.38c-.14-.1-.28-.19-.41-.3a15.141,15.141,0,0,1-1.73-1.49,13.51,13.51,0,0,1-1.02-1.13,12.669,12.669,0,0,1-.83-1.1c-.18-.25-.35-.51-.5-.77-.13-.22-.26-.44-.38-.66-.11-.19-.2-.38-.3-.58a4.538,4.538,0,0,1-.21-.45,5.547,5.547,0,0,1-.24-.56,14.647,14.647,0,0,1-.51-1.45c-.07-.25-.14-.49-.2-.74a17.231,17.231,0,0,1-.34-1.88,15.009,15.009,0,0,1,0-3.8,17.214,17.214,0,0,1,.34-1.879c.06-.25.13-.491.2-.741a14.54,14.54,0,0,1,.51-1.449,5.468,5.468,0,0,1,.24-.561,4.538,4.538,0,0,1,.21-.45c.1-.2.19-.389.3-.58.12-.22.25-.44.38-.659a9.04,9.04,0,0,1,.5-.771,12.823,12.823,0,0,1,.83-1.1A13.342,13.342,0,0,1,4.65,4.622,15.884,15.884,0,0,1,14.84,0a.957.957,0,0,1,1.03.95v.11a.953.953,0,0,1-.91.94,13.9,13.9,0,0,0-9.79,5.02,11.325,11.325,0,0,0-1.16,1.63,4.875,4.875,0,0,0-.34.58,11.419,11.419,0,0,0-.58,1.22c-.07.15-.13.31-.19.47a13.9,13.9,0,0,0,0,9.84,12.2,12.2,0,0,0,.77,1.69c.11.19.22.39.34.58a11.269,11.269,0,0,0,1.16,1.63c.11.14.23.28.35.41l.04.04a3.283,3.283,0,0,0,.31.34.573.573,0,0,0,.11.11.647.647,0,0,0,.08.09,1.92,1.92,0,0,0,.15.14,10.431,10.431,0,0,0,1.01.88,9.426,9.426,0,0,0,.9.66,5.034,5.034,0,0,0,.57.37,4.791,4.791,0,0,0,.58.33,3.673,3.673,0,0,0,.48.25,11.923,11.923,0,0,0,2,.8,5.719,5.719,0,0,0,.59.17,13.847,13.847,0,0,0,7.06,0,5.719,5.719,0,0,0,.59-.17,11.923,11.923,0,0,0,2-.8,3.673,3.673,0,0,0,.48-.25,4.791,4.791,0,0,0,.58-.33,5.034,5.034,0,0,0,.57-.37c.17-.11.34-.23.5-.35.01-.01.03-.02.04-.03a11.522,11.522,0,0,0,1.37-1.16,1.92,1.92,0,0,0,.15-.14.647.647,0,0,0,.08-.09.573.573,0,0,0,.11-.11,3.283,3.283,0,0,0,.31-.34l.04-.04c.12-.13.24-.27.35-.41a11.269,11.269,0,0,0,1.16-1.63c.12-.19.23-.39.34-.58a12.2,12.2,0,0,0,.77-1.69,14.037,14.037,0,0,0,.87-5.8,10.975,10.975,0,0,0-.14-1.271c-.03-.2-.07-.4-.1-.6-.03-.14-.06-.279-.1-.42s-.06-.25-.09-.369a6.149,6.149,0,0,0-.18-.611c-.08-.28-.18-.549-.28-.819a4.645,4.645,0,0,0-.21-.521c-.09-.209-.18-.42-.29-.62a13.679,13.679,0,0,0-2.64-3.7,1.92,1.92,0,0,0-.15-.14,14.086,14.086,0,0,0-2.6-2V11.3a1,1,0,0,1-2,0V1.95a.709.709,0,0,1,.709-.709h9.1a1,1,0,1,1,0,2H25.52a14.429,14.429,0,0,1,1.4,1.221.021.021,0,0,1,.02.019c.12.11.23.22.34.34s.22.221.31.33c.14.15.27.29.39.44.17.2.33.4.49.61s.3.4.45.61c.01.02.02.03.03.05.14.2.27.41.4.62s.27.43.39.651a.073.073,0,0,1,.02.039c.12.221.23.43.34.66a11.064,11.064,0,0,1,.5,1.11c.09.21.17.431.24.65.09.24.17.48.24.73s.14.491.2.741c.12.5.22,1,.29,1.5.04.25.07.509.09.759"/>
      </g>
    </g>
  </g>
</svg>
