<svg xmlns="http://www.w3.org/2000/svg" xmlns:xlink="http://www.w3.org/1999/xlink" width="74" height="74" viewBox="0 0 74 74">
  <defs>
    <clipPath id="clip-path">
      <rect id="Rectangle_2622" data-name="Rectangle 2622" width="31.92" height="31.892" transform="translate(0 0)" fill="rgba(0,0,0,0)"/>
    </clipPath>
  </defs>
  <g id="Group_76614" data-name="Group 76614" transform="translate(-744 -541)">
    <circle id="Ellipse_210" data-name="Ellipse 210" cx="37" cy="37" r="37" transform="translate(744 541)" fill="#f1f7ff"/>
    <g id="Group_76611" data-name="Group 76611" transform="translate(765 562)" opacity="0.25" clip-path="url(#clip-path)">
      <path id="Path_9907" data-name="Path 9907" d="M.121,13.987a15.187,15.187,0,0,0,0,3.822,16.192,16.192,0,0,1,0-3.822m.543,6.457A14.731,14.731,0,0,0,1.177,21.9a11.913,11.913,0,0,1-.513-1.458m0-9.091a11.839,11.839,0,0,1,.513-1.457,14.622,14.622,0,0,0-.513,1.457m2.253,9.494a12.274,12.274,0,0,0,.774,1.7,15.2,15.2,0,0,1-.774-1.7m1.116,2.283A11.333,11.333,0,0,0,5.2,24.768a15.613,15.613,0,0,1-1.167-1.639m0-14.462A15.72,15.72,0,0,1,5.2,7.027,11.389,11.389,0,0,0,4.033,8.667M5.2,24.768c.111.141.231.282.352.412l.04.04c-.02-.01-.03-.02-.03-.04-.121-.131-.241-.272-.362-.412m.815.905a.651.651,0,0,0,.08.091,1.931,1.931,0,0,0,.151.141,1.748,1.748,0,0,1,.151.131c-.121-.121-.251-.241-.382-.362m8.035,6.064a15.187,15.187,0,0,0,3.822,0,16.192,16.192,0,0,1-3.822,0M24.257,27.1c.01-.01.03-.02.04-.03.121-.091.241-.191.352-.282-.131.1-.261.2-.392.312m2.1-1.921c0,.02-.01.03-.03.04l.04-.04c.121-.131.241-.272.352-.412-.121.141-.241.282-.362.412m-.835.855a1.748,1.748,0,0,1,.151-.131,1.931,1.931,0,0,0,.151-.141.651.651,0,0,0,.08-.091c-.131.121-.261.241-.382.362m.3-20a1.931,1.931,0,0,0-.151-.141l-.01.01a13.947,13.947,0,0,1,2.816,3.852,13.756,13.756,0,0,0-2.655-3.721m.9,18.736a11.333,11.333,0,0,0,1.167-1.639,15.614,15.614,0,0,1-1.167,1.639m1.509-2.223a12.273,12.273,0,0,0,.774-1.7,15.2,15.2,0,0,1-.774,1.7m2.514-.644a14.731,14.731,0,0,0,.513-1.458,11.912,11.912,0,0,1-.513,1.458m.714-9.8c.121.5.221,1.006.292,1.509a12.49,12.49,0,0,0-.292-1.509m.382,2.272c.05.5.07,1.016.07,1.519q0,.437-.03.875a3.889,3.889,0,0,1-.03.483c-.03.372-.07.734-.131,1.1.04-.2.06-.4.091-.6a15.865,15.865,0,0,0,.111-1.84,12.861,12.861,0,0,0-.08-1.529" transform="translate(0 0.034)"/>
      <path id="Path_9908" data-name="Path 9908" d="M5.53,25.071c0,.02.01.03.03.04l-.04-.04Z" transform="translate(0.031 0.143)"/>
      <path id="Path_9909" data-name="Path 9909" d="M26.21,25.071h.01l-.04.04c.02-.01.03-.02.03-.04" transform="translate(0.149 0.143)"/>
      <path id="Path_9910" data-name="Path 9910" d="M31.671,17.181c-.01.161-.03.332-.04.493-.03.2-.05.4-.091.6.06-.362.1-.724.131-1.1" transform="translate(0.179 0.098)"/>
      <path id="Path_9911" data-name="Path 9911" d="M27.282,4.823c-.111-.121-.221-.231-.342-.341a1.609,1.609,0,0,1,.151.141c.07.069.131.13.191.2" transform="translate(0.153 0.026)"/>
      <path id="Path_9912" data-name="Path 9912" d="M31.84,14.4c.05.5.07,1.016.07,1.519q0,.437-.03.875a3.889,3.889,0,0,1-.03.483c-.03.372-.07.734-.131,1.1a.149.149,0,0,1-.01.07c-.03.181-.06.372-.091.553-.05.251-.1.493-.161.734s-.131.493-.2.744a14.732,14.732,0,0,1-.513,1.458,5.579,5.579,0,0,1-.241.563,4.563,4.563,0,0,1-.211.453c-.1.2-.191.392-.3.583-.121.221-.251.443-.382.664-.151.261-.322.523-.5.774a12.74,12.74,0,0,1-.835,1.106,13.587,13.587,0,0,1-1.026,1.136,15.227,15.227,0,0,1-1.74,1.5c-.131.111-.272.2-.412.3A14.833,14.833,0,0,1,22.678,30.4c-.279.134-.572.252-.863.374a11.267,11.267,0,0,1-1.4.481c-.221.06-.442.121-.654.171a17.329,17.329,0,0,1-1.891.342,15.094,15.094,0,0,1-3.822,0,17.329,17.329,0,0,1-1.891-.342c-.211-.05-.432-.111-.654-.171a11.267,11.267,0,0,1-1.4-.481c-.291-.122-.584-.24-.863-.374a14.833,14.833,0,0,1-2.414-1.388c-.141-.1-.282-.191-.412-.3a15.227,15.227,0,0,1-1.74-1.5,13.587,13.587,0,0,1-1.026-1.136,12.741,12.741,0,0,1-.835-1.106c-.181-.251-.352-.513-.5-.774-.131-.221-.261-.443-.382-.664-.111-.191-.2-.382-.3-.583a4.564,4.564,0,0,1-.211-.453,5.579,5.579,0,0,1-.241-.563,14.731,14.731,0,0,1-.513-1.458c-.07-.251-.141-.493-.2-.744a17.329,17.329,0,0,1-.342-1.891,15.094,15.094,0,0,1,0-3.822,17.311,17.311,0,0,1,.342-1.89c.06-.251.131-.494.2-.745a14.622,14.622,0,0,1,.513-1.457,5.5,5.5,0,0,1,.241-.564,4.564,4.564,0,0,1,.211-.453c.1-.2.191-.391.3-.583.121-.221.251-.443.382-.663a9.091,9.091,0,0,1,.5-.775,12.9,12.9,0,0,1,.835-1.106A13.418,13.418,0,0,1,4.676,4.648,15.974,15.974,0,0,1,14.924,0,.963.963,0,0,1,15.96.956v.111a.959.959,0,0,1-.915.945A13.981,13.981,0,0,0,5.2,7.061,11.389,11.389,0,0,0,4.033,8.7a4.9,4.9,0,0,0-.342.583,11.484,11.484,0,0,0-.583,1.227c-.07.151-.131.312-.191.473a13.977,13.977,0,0,0,0,9.9,12.274,12.274,0,0,0,.774,1.7c.111.191.221.392.342.583A11.333,11.333,0,0,0,5.2,24.8c.111.141.231.282.352.412l.04.04A3.3,3.3,0,0,0,5.9,25.6a.576.576,0,0,0,.111.111.651.651,0,0,0,.08.091,1.931,1.931,0,0,0,.151.141,10.49,10.49,0,0,0,1.016.885,9.48,9.48,0,0,0,.905.664,5.063,5.063,0,0,0,.573.372,4.818,4.818,0,0,0,.583.332,3.694,3.694,0,0,0,.483.251,11.991,11.991,0,0,0,2.011.8,5.753,5.753,0,0,0,.593.171,13.926,13.926,0,0,0,7.1,0,5.753,5.753,0,0,0,.593-.171,11.991,11.991,0,0,0,2.011-.8,3.694,3.694,0,0,0,.483-.251,4.818,4.818,0,0,0,.583-.332,5.063,5.063,0,0,0,.573-.372c.171-.111.342-.231.5-.352.01-.01.03-.02.04-.03a11.588,11.588,0,0,0,1.378-1.167,1.931,1.931,0,0,0,.151-.141.651.651,0,0,0,.08-.091.576.576,0,0,0,.111-.111,3.3,3.3,0,0,0,.312-.342l.04-.04c.121-.131.241-.272.352-.412a11.333,11.333,0,0,0,1.167-1.639c.121-.191.231-.392.342-.583a12.273,12.273,0,0,0,.774-1.7,14.117,14.117,0,0,0,.875-5.832,11.038,11.038,0,0,0-.141-1.278c-.03-.2-.07-.4-.1-.6-.03-.141-.06-.281-.1-.422s-.06-.251-.091-.371a6.185,6.185,0,0,0-.181-.614c-.08-.282-.181-.552-.282-.824a4.671,4.671,0,0,0-.211-.524c-.091-.21-.181-.422-.292-.624a13.757,13.757,0,0,0-2.655-3.721,1.931,1.931,0,0,0-.151-.141A14.166,14.166,0,0,0,23.06,3.913v7.453a1.006,1.006,0,0,1-2.011,0V1.961a.713.713,0,0,1,.713-.713h9.153a1.006,1.006,0,1,1,0,2.011h-5.25a14.511,14.511,0,0,1,1.408,1.228.021.021,0,0,1,.02.019c.121.111.231.221.342.342s.221.222.312.332c.141.151.272.292.392.443.171.2.332.4.493.613s.3.4.453.613c.01.02.02.03.03.05.141.2.272.412.4.624s.272.432.392.655a.074.074,0,0,1,.02.039c.121.222.231.432.342.664a11.128,11.128,0,0,1,.5,1.116c.091.211.171.433.241.654.091.241.171.483.241.734s.141.494.2.745c.121.5.221,1.006.292,1.509.04.251.07.512.091.763" transform="translate(0 0)"/>
    </g>
  </g>
</svg>
